<?xml version="1.0" standalone="no"?>
<!DOCTYPE svg PUBLIC "-//W3C//DTD SVG 1.1//EN" "http://www.w3.org/Graphics/SVG/1.1/DTD/svg11.dtd" >
<svg xmlns="http://www.w3.org/2000/svg">
<metadata></metadata>
<defs>
<font id="Webfont&" horiz-adv-x="1049" >
<font-face units-per-em="2048" ascent="1589" descent="-459" />
<missing-glyph horiz-adv-x="524" />
<glyph horiz-adv-x="0" />
<glyph horiz-adv-x="2048" />
<glyph unicode="&#xd;" horiz-adv-x="524" />
<glyph unicode=" "  horiz-adv-x="524" />
<glyph unicode="&#x09;" horiz-adv-x="524" />
<glyph unicode="&#xa0;" horiz-adv-x="524" />
<glyph unicode="!" horiz-adv-x="524" d="M154 82q0 46 31 77t77.5 31t77.5 -30.5t31 -77t-31 -77t-77.5 -30.5t-77.5 30.5t-31 76.5zM197 1475h129l-19 -1153h-90z" />
<glyph unicode="&#x22;" horiz-adv-x="551" d="M100 881v553h86v-553h-86zM365 881v553h86v-553h-86z" />
<glyph unicode="#" horiz-adv-x="1575" d="M129 494l31 90h336l100 282h-360l28 90h365l176 498h110l-174 -498h271l176 498h110l-174 -498h322l-31 -90h-323l-101 -282h348l-30 -90h-351l-174 -494h-112l176 494h-270l-179 -494h-110l174 494h-334zM610 584h269l100 282h-270z" />
<glyph unicode="$" d="M70 0v489h86q42 -178 126 -280.5t199 -116.5v604q-379 79 -379 365q0 150 104.5 244.5t274.5 97.5v100h82v-102q178 -40 268 -178l-2 176h89v-381h-80q-64 227 -275 287v-521q428 -91 428 -415q0 -159 -120.5 -266.5t-306.5 -110.5l-1 -170h-82v170q-205 34 -325 248 l2 -240h-88zM207 1068q0 -212 274 -265v510q-125 -4 -199.5 -71.5t-74.5 -173.5zM563 676l1 -590q137 2 230 84t93 198q0 234 -324 308z" />
<glyph unicode="%" horiz-adv-x="1671" d="M72 1104q0 141 95.5 236.5t235.5 95.5t236 -96t96 -236t-96 -236t-236 -96t-235.5 95.5t-95.5 236.5zM172 1104q0 -99 67 -166.5t164.5 -67.5t164.5 67.5t67 167t-66 166t-164.5 66.5t-165.5 -67t-67 -166zM309 -29l957 1493h100l-958 -1493h-99zM936 331.5 q0 140.5 95.5 236.5t235.5 96t236 -96t96 -236t-96 -236t-236 -96t-235.5 95.5t-95.5 236zM1036 332q0 -99 67 -166.5t164.5 -67.5t164.5 67.5t67 167t-66 166t-164.5 66.5t-165.5 -67t-67 -166z" />
<glyph unicode="&#x26;" horiz-adv-x="1335" d="M84 311q0 110 73.5 218.5t248.5 252.5q-189 213 -189 418q0 141 80 222t217 81t216 -80t79 -201.5t-58.5 -221.5t-189.5 -220l334 -368q134 168 186 379h-123v100h371v-100h-135q-63 -251 -227 -467l207 -224h155v-100h-213l-219 238q-233 -267 -463 -267 q-151 0 -250.5 97t-99.5 243zM205 308.5q0 -89.5 67.5 -159t164.5 -69.5q196 0 386 235l-346 396q-160 -147 -216 -230t-56 -172.5zM334 1204q0 -180 158 -356q108 108 155 193t47 172t-45.5 138.5t-131 51.5t-134.5 -52.5t-49 -146.5z" />
<glyph unicode="'" horiz-adv-x="285" d="M100 881v553h86v-553h-86z" />
<glyph unicode="(" horiz-adv-x="631" d="M141 641q0 460 314 862l84 -65q-285 -392 -285 -797t285 -797l-84 -63q-314 399 -314 860z" />
<glyph unicode=")" horiz-adv-x="631" d="M92 -156q285 396 285 797t-285 797l84 65q313 -400 313 -862t-313 -860z" />
<glyph unicode="*" horiz-adv-x="1024" d="M217 1276l35 88l221 -94l-4 233h94l-6 -233l215 94l33 -88l-230 -82l160 -170l-73 -63l-150 180l-150 -180l-71 63l160 170z" />
<glyph unicode="+" horiz-adv-x="1706" d="M254 569v82h559v570h80v-570h559v-82h-559v-569h-80v569h-559z" />
<glyph unicode="," horiz-adv-x="524" d="M78 -217l133 434h115l-133 -434h-115z" />
<glyph unicode="-" horiz-adv-x="635" d="M68 420v102h501v-102h-501z" />
<glyph unicode="." horiz-adv-x="524" d="M154 82q0 46 31 77t77.5 31t77.5 -30.5t31 -77t-31 -77t-77.5 -30.5t-77.5 30.5t-31 76.5z" />
<glyph unicode="/" horiz-adv-x="578" d="M31 -190l526 1693h92l-526 -1693h-92z" />
<glyph unicode="0" d="M104 537v364q0 148 14.5 223t47.5 133q117 207 358 207q242 0 359 -207q32 -56 45.5 -128.5t13.5 -227.5v-364q0 -155 -13.5 -227.5t-45.5 -129.5q-120 -209 -359 -209q-240 0 -358 209q-33 59 -47.5 134t-14.5 223zM219 518q0 -209 43 -287q85 -159 262 -159t262 155 q24 44 33.5 106t9.5 185v400q0 124 -9 186q-23 149 -144 222q-67 40 -152 40q-176 0 -262 -158q-43 -79 -43 -290v-400z" />
<glyph unicode="1" d="M309 0v94h180v1247h-167v95h282v-1342h174v-94h-469z" />
<glyph unicode="2" d="M92 0v96q85 102 235 279q476 559 476 733q0 118 -77 189t-217 71t-221 -104t-81 -299v-21h-104q-3 15 -3 53q0 217 114 342t299 125t295 -97t110 -249q0 -218 -608 -919l-91 -105h619v266h110v-360h-856z" />
<glyph unicode="3" d="M100 397v15l105 -1q4 -154 89.5 -246.5t220.5 -92.5t224.5 88.5t89.5 225.5t-94.5 224.5t-249.5 87.5l-43 -2v94q176 2 276.5 80.5t100.5 210t-79 207.5t-214.5 76t-212 -84t-82.5 -244h-100v4q0 195 110.5 309.5t290 114.5t291 -107t111.5 -272q0 -125 -75 -216 t-204 -119q131 -25 210 -124t79 -255.5t-121 -278t-305.5 -121.5t-301 115.5t-116.5 310.5z" />
<glyph unicode="4" d="M63 393v94l607 949h90v-951h178v-92h-178v-299h178v-94h-469v94h178v299h-584zM180 485h467v523q0 87 27 268z" />
<glyph unicode="5" d="M106 387v10h105q5 -153 84.5 -241t217.5 -88t225 103.5t87 283.5t-93 276t-275 96q-139 0 -262 -47v656h602v-95h-496v-440q96 23 178 23q217 0 339 -126.5t122 -345t-120.5 -350t-307.5 -131.5t-296.5 115t-109.5 301z" />
<glyph unicode="6" d="M111 625v221q0 304 112 460t330 156q146 0 237.5 -90t102.5 -243l-100 -1q-37 234 -252 234q-169 0 -245.5 -144t-76.5 -462v-56q108 199 340 199q176 0 290 -131t114 -336t-118 -333t-306 -128q-132 0 -229 61q-157 98 -187 334q-12 93 -12 259zM231 434 q0 -169 82.5 -265.5t225.5 -96.5t226 96t83 263.5t-84 265.5t-226.5 98t-224.5 -96t-82 -265z" />
<glyph unicode="7" d="M164 1104v332h813v-95l-590 -1341h-127l594 1341h-578v-237h-112z" />
<glyph unicode="8" d="M102 381q0 133 73 232.5t198 136.5q-118 42 -182 133t-64 215q0 159 113 263.5t284.5 104.5t284.5 -104.5t113 -263.5q0 -123 -64.5 -214.5t-181.5 -133.5q125 -37 197.5 -136.5t72.5 -232.5q0 -179 -118 -294.5t-303.5 -115.5t-304 115.5t-118.5 294.5zM213 381.5 q0 -134.5 89.5 -224t222 -89.5t222 89.5t89.5 224t-89.5 224.5t-222 90t-222 -90t-89.5 -224.5zM236 1083.5q0 -122.5 82.5 -204.5t205.5 -82t206 82t83 204.5t-83 204.5t-206 82t-205.5 -82t-82.5 -204.5z" />
<glyph unicode="9" d="M84 1001.5q0 204.5 118 332.5t306 128q132 0 229 -61q155 -97 187 -333q12 -94 12 -259v-221q0 -617 -442 -617q-153 0 -243 86.5t-106 247.5h101q36 -233 248 -233q179 0 258 134t79 443q0 13 -1 41.5t-1 42.5q-106 -198 -342 -198q-175 0 -289 131t-114 335.5z M201 1002q0 -168 83 -265.5t225.5 -97.5t224 95.5t81.5 264.5t-82.5 266t-225 97t-224.5 -96t-82 -264z" />
<glyph unicode=":" horiz-adv-x="524" d="M154 82q0 46 31 77t77.5 31t77.5 -30.5t31 -77t-31 -77t-77.5 -30.5t-77.5 30.5t-31 76.5zM154 817q0 46 31 76.5t78 30.5t77.5 -30.5t30.5 -76.5t-31 -76t-77.5 -30t-77.5 30t-31 76z" />
<glyph unicode=";" horiz-adv-x="524" d="M78 -217l133 434h115l-133 -434h-115zM154 817q0 46 31 76.5t78 30.5t77.5 -30.5t30.5 -76.5t-31 -76t-77.5 -30t-77.5 30t-31 76z" />
<glyph unicode="&#x3c;" horiz-adv-x="1706" d="M264 580v61l1178 483v-90l-1045 -424l1045 -424v-88z" />
<glyph unicode="=" horiz-adv-x="1706" d="M254 387v82h1198v-82h-1198zM254 752v79h1198v-79h-1198z" />
<glyph unicode="&#x3e;" horiz-adv-x="1706" d="M264 98v88l1045 424l-1045 424v90l1178 -483v-61z" />
<glyph unicode="?" horiz-adv-x="1042" d="M121 1119q4 170 111 277t278 107t276 -110t105 -286t-101.5 -286t-269.5 -125v-374h-110v471l34 -2q159 0 248.5 87t89.5 226t-80.5 220t-200.5 81t-193.5 -78t-78.5 -209zM358 82q0 46 31.5 77t78 31t77 -30.5t30.5 -77t-31 -77t-77.5 -30.5t-77.5 30.5t-31 76.5z" />
<glyph unicode="@" horiz-adv-x="2048" d="M121 522q0 327 198 572q293 356 795 356q160 0 304.5 -44t260.5 -133t182 -217.5t66 -287.5t-63 -298t-181 -232q-138 -111 -305 -111q-192 0 -192 145q0 12 2 24.5t2 14.5q-49 -88 -125 -136t-166 -48q-154 0 -233.5 83t-79.5 243q0 228 134.5 386t327 158t255.5 -170 l61 129h80l-137 -553q-21 -76 -21 -114t30.5 -62t82.5 -24q102 0 205 75t164 208t61 282q0 273 -199.5 439.5t-525.5 166.5q-337 0 -569 -192q-310 -258 -310 -672q0 -327 221.5 -522t591.5 -195q161 0 324 50.5t299 142.5l29 -45q-292 -220 -648 -220q-377 0 -620 185 q-301 228 -301 616zM690 446q0 -115 57.5 -180t164 -65t191.5 72.5t116 193.5l63 254q-45 203 -233 203q-152 0 -255.5 -138t-103.5 -340z" />
<glyph unicode="A" horiz-adv-x="1356" d="M-37 0v100h143l467 1274h-149v101h508v-101h-150l467 -1274h144v-100h-432v100h167l-131 361h-639l-131 -361h168v-100h-432zM397 559h561l-280 782z" />
<glyph unicode="B" horiz-adv-x="1231" d="M61 0v100h170v1274h-170v101h492q524 0 524 -363q0 -235 -254 -319q163 -38 249.5 -136.5t86.5 -242.5q0 -188 -124.5 -301t-332.5 -113h-641zM350 100h283q210 0 307.5 76t97.5 238.5t-99 239.5t-306 77h-283v-631zM350 829h193q228 0 320.5 62.5t92.5 208t-97.5 210 t-315.5 64.5h-193v-545z" />
<glyph unicode="C" horiz-adv-x="1522" d="M76 737q0 350 252 580q204 186 499 186q173 0 308 -68t217 -196v236h102v-459h-92q-51 182 -192 284.5t-343 102.5q-120 0 -234 -45t-206 -134q-190 -182 -190 -482t182 -485t471 -185q197 0 334 104.5t182 288.5h104q-61 -238 -227.5 -366t-415.5 -128q-292 0 -499 189 q-252 228 -252 577z" />
<glyph unicode="D" horiz-adv-x="1458" d="M59 0v100h170v1274h-170v101h459q341 0 481 -78q383 -219 383 -660q0 -209 -101 -380t-286 -273q-148 -84 -477 -84h-459zM348 100h170q340 0 541 175.5t201 467.5q0 367 -322 555q-129 76 -420 76h-170v-1274z" />
<glyph unicode="E" horiz-adv-x="1208" d="M59 0v100h170v1274h-170v101h1080v-363h-119v262h-672v-543h516v-100h-516v-631h672v256h119v-356h-1080z" />
<glyph unicode="F" horiz-adv-x="1143" d="M59 0v100h170v1274h-170v101h1094v-363h-117v262h-688v-543h516v-100h-516v-631h191v-100h-480z" />
<glyph unicode="G" horiz-adv-x="1686" d="M76 718q0 369 252 599q204 186 499 186q175 0 309.5 -68t215.5 -196v236h102v-459h-92q-49 180 -191.5 283.5t-343.5 103.5q-121 0 -234.5 -44.5t-205.5 -133.5q-190 -184 -190 -484t183 -484.5t478 -184.5q230 0 371 128.5t151 350.5h-454v98h704v-98h-151v-551h-111 v238q-79 -130 -213 -198.5t-280.5 -68.5t-245 25t-183.5 76q-175 105 -272.5 279.5t-97.5 366.5z" />
<glyph unicode="H" horiz-adv-x="1479" d="M59 0v100h170v1274h-170v101h459v-101h-170v-555h782v555h-169v101h458v-101h-170v-1274h170v-100h-458v100h169v621h-782v-621h170v-100h-459z" />
<glyph unicode="I" horiz-adv-x="578" d="M41 0v100h188v1274h-188v101h498v-101h-191v-1274h191v-100h-498z" />
<glyph unicode="J" horiz-adv-x="563" d="M0 -137h33q115 0 155.5 43.5t40.5 193.5v1274h-188v101h483v-101h-176v-1274q0 -183 -65.5 -263.5t-212.5 -80.5h-70v107z" />
<glyph unicode="K" horiz-adv-x="1305" d="M59 0v100h170v1274h-170v101h459v-101h-170v-616l658 616h-158v101h450v-101h-147l-678 -629l686 -645h139v-100h-473v100h158l-635 605v-605h170v-100h-459z" />
<glyph unicode="L" horiz-adv-x="1083" d="M59 0v100h170v1274h-170v101h459v-101h-170v-1274h602v213h119v-313h-1010z" />
<glyph unicode="M" horiz-adv-x="1792" d="M51 0v100h189v1274h-189v101h314l530 -1252l532 1252h314v-101h-189v-1274h189v-100h-498v100h191v1149l-506 -1192h-64l-506 1192v-1149h191v-100h-498z" />
<glyph unicode="N" horiz-adv-x="1470" d="M59 0v100h170v1274h-170v101h351l710 -1280v1179h-155v101h444v-101h-170v-1403h-119l-772 1375v-1246h158v-100h-447z" />
<glyph unicode="O" horiz-adv-x="1655" d="M76 738q0 349 252 579q204 186 499 186q296 0 500 -186q252 -234 252 -580q0 -348 -252 -577q-207 -189 -500 -189q-292 0 -499 189q-252 230 -252 578zM197 738q0 -302 198 -494q82 -80 196.5 -125t236.5 -45t236 44.5t204 132.5q190 186 190 486q0 304 -198 496 q-84 81 -197.5 125.5t-235 44.5t-235 -44.5t-197.5 -125.5q-198 -192 -198 -495z" />
<glyph unicode="P" horiz-adv-x="1188" d="M41 0v100h188v1274h-188v101h563q278 0 422.5 -114.5t144.5 -334.5q0 -448 -567 -448h-256v-478h191v-100h-498zM348 672h248q232 0 343.5 86t111.5 265.5t-111 265t-344 85.5h-248v-702z" />
<glyph unicode="Q" horiz-adv-x="1655" d="M76 737q0 350 252 580q204 186 499 186q296 0 500 -186q252 -234 252 -580q0 -260 -139.5 -455.5t-382.5 -275.5l53 -106h219v-101h-280l-91 185q-82 -13 -182 -13t-224 48.5t-236.5 151t-176 248.5t-63.5 318zM197 737q0 -185 73.5 -330t212.5 -233q158 -100 346 -100 q52 0 82 4l-80 166l89 43l90 -187q209 60 328.5 230.5t119.5 406.5q0 304 -198 496q-84 81 -197.5 125.5t-235 44.5t-235 -44.5t-205.5 -133.5q-190 -184 -190 -488z" />
<glyph unicode="R" horiz-adv-x="1341" d="M41 0v100h188v1274h-188v101h629q261 0 399.5 -97.5t138.5 -281.5q0 -139 -90.5 -229.5t-253.5 -112.5q155 -40 217 -120t62 -249v-285h170v-100h-289v352q0 204 -109 284.5t-387 80.5h-180v-617h191v-100h-498zM348 817h291q235 0 341.5 66.5t106.5 212t-106.5 212 t-341.5 66.5h-291v-557z" />
<glyph unicode="S" horiz-adv-x="1356" d="M193 -4v491h98q27 -194 156 -306.5t304 -112.5t272 81.5t97 201t-69.5 186.5t-225.5 108l-192 51q-438 119 -438 418q0 166 126.5 275.5t319.5 109.5q132 0 241 -57.5t171 -159.5l-6 188h98v-393h-92q-40 153 -151 237.5t-261 84.5t-243 -76.5t-93 -192.5 q0 -228 348 -317l228 -59q350 -91 350 -381q0 -181 -132 -293.5t-347 -112.5q-143 0 -264 67.5t-203 192.5l6 -231h-98z" />
<glyph unicode="T" horiz-adv-x="1157" d="M35 1071v404h1085v-404h-102v303h-381v-1274h190v-100h-497v100h188v1274h-379v-303h-104z" />
<glyph unicode="U" horiz-adv-x="1442" d="M39 1374v101h461v-101h-172v-837q0 -155 20 -228.5t70 -126.5q100 -106 301 -106q205 0 307 108q48 51 68 124.5t20 228.5v837h-172v101h461v-101h-172v-891q0 -512 -511 -512t-511 512v891h-170z" />
<glyph unicode="V" horiz-adv-x="1247" d="M-10 1374v101h432v-101h-160l361 -1235l364 1235h-162v101h432v-101h-159l-420 -1399h-109l-422 1399h-157z" />
<glyph unicode="W" horiz-adv-x="1892" d="M-8 1374v101h418v-101h-172l356 -1241l289 1241h-172v101h471v-101h-172l288 -1241l357 1241h-172v101h418v-101h-125l-420 -1399h-117l-293 1254l-293 -1254h-118l-418 1399h-125z" />
<glyph unicode="X" horiz-adv-x="1319" d="M-8 0v100h172l434 633l-426 641h-160v101h473v-101h-180l361 -549l364 549h-199v101h476v-101h-160l-426 -629l434 -645h170v-100h-465v100h162l-367 551l-370 -551h172v-100h-465z" />
<glyph unicode="Y" horiz-adv-x="1251" d="M-8 1374v101h461v-101h-195l365 -633l362 633h-186v101h461v-101h-146l-430 -735v-539h190v-100h-497v100h188v551l-426 723h-147z" />
<glyph unicode="Z" horiz-adv-x="1327" d="M166 0v100l854 1274h-744v-287h-110v388h985v-101l-854 -1274h743v289h111v-389h-985z" />
<glyph unicode="[" horiz-adv-x="741" d="M256 -176v1651h395v-99h-282v-1456h282v-96h-395z" />
<glyph unicode="\" horiz-adv-x="578" d="M-20 1503h92l526 -1693h-90z" />
<glyph unicode="]" horiz-adv-x="741" d="M90 -80h283v1456h-283v99h395v-1651h-395v96z" />
<glyph unicode="^" horiz-adv-x="2048" d="M424 901l539 557h118l541 -557h-125l-473 469l-475 -469h-125z" />
<glyph unicode="_" horiz-adv-x="1024" d="M0 -403h1024v-80h-1024v80z" />
<glyph unicode="`" horiz-adv-x="1024" d="M276 1407h152l209 -348h-92z" />
<glyph unicode="a" horiz-adv-x="1225" d="M55 469q0 208 129.5 343.5t331.5 135.5q242 0 397 -198v174h256v-95h-151v-735h151v-94h-256v197q-143 -220 -391 -220q-197 0 -329 140q-138 144 -138 352zM164 470q0 -168 109 -281t263 -113t264.5 114t110.5 277.5t-110 276t-271.5 112.5t-263.5 -109t-102 -277z" />
<glyph unicode="b" horiz-adv-x="1225" d="M45 0v94h152v1286h-152v95h256v-725q157 198 397 198q203 0 332 -135.5t129 -349.5q0 -203 -137 -346q-134 -140 -330 -140q-246 0 -391 220v-197h-256zM303 466.5q0 -162.5 112 -277.5t267.5 -115t262 113t106.5 283.5t-102.5 278t-264 107.5t-271.5 -113.5t-110 -276z " />
<glyph unicode="c" horiz-adv-x="1090" d="M68 463q0 215 137 348q66 65 155 101t183 36q202 0 319 -133l-2 109h94v-310h-94q-32 115 -116 178.5t-201 63.5q-162 0 -265.5 -110t-103.5 -282t107 -283t270 -111q192 0 342 176l65 -64q-172 -207 -398 -207t-359 134.5t-133 353.5z" />
<glyph unicode="d" horiz-adv-x="1223" d="M68 468.5q0 208.5 129 344t331 135.5q241 0 398 -198v630h-152v95h256v-1381h150v-94h-254v197q-145 -220 -391 -220q-198 0 -330 140q-137 143 -137 351.5zM174 470q0 -168 110 -281t264 -113t264 114t110 277.5t-110.5 276t-272 112.5t-263.5 -109t-102 -277z" />
<glyph unicode="e" horiz-adv-x="1143" d="M66 461q0 208 144 347.5t368 139.5t360 -139.5t137 -376.5h-898q9 -161 120 -262.5t274 -101.5q116 0 207 52t144 148h116q-150 -293 -467 -293q-217 0 -361 139t-144 347zM176 518h791q-25 160 -129 249t-262.5 89t-267 -92.5t-132.5 -245.5z" />
<glyph unicode="f" horiz-adv-x="563" d="M43 0v94h166v735h-166v95h166v278q0 148 58 210.5t194 62.5q43 0 88 -7v-89q-58 5 -82 5q-87 0 -120.5 -40t-33.5 -148v-272h181v-95h-181v-735h181v-94h-451z" />
<glyph unicode="g" horiz-adv-x="1225" d="M68 468.5q0 208.5 129 344t331 135.5q241 0 398 -198v174h254v-95h-150v-618q0 -199 -16 -285q-37 -206 -214 -297q-106 -55 -253 -55q-307 0 -426 242h117q85 -150 297 -150t302.5 108.5t90.5 346.5q0 47 -2 75q-146 -219 -391 -219q-198 0 -330 140 q-137 143 -137 351.5zM174 470q0 -168 110 -281t264 -113t264 114t110 277.5t-110.5 276t-272 112.5t-263.5 -109t-102 -277z" />
<glyph unicode="h" horiz-adv-x="1165" d="M55 0v94h152v1286h-152v95h256v-725q176 198 385 198q149 0 214 -76.5t65 -255.5v-522h151v-94h-405v94h149v522q0 126 -45.5 182t-146.5 56q-191 0 -367 -231v-529h154v-94h-410z" />
<glyph unicode="i" horiz-adv-x="512" d="M33 0v94h174v735h-164v95h268v-830h156v-94h-434zM201 1112v240h110v-240h-110z" />
<glyph unicode="j" horiz-adv-x="469" d="M6 -334q114 36 157.5 108.5t43.5 256.5v798h-164v95h268v-897q0 -218 -68 -316.5t-237 -136.5v92zM201 1112v240h110v-240h-110z" />
<glyph unicode="k" horiz-adv-x="1057" d="M33 0v94h174v1286h-164v95h268v-938l363 292h-154v95h447v-95h-150l-399 -317l454 -418h152v-94h-424v94h131l-420 383v-383h150v-94h-428z" />
<glyph unicode="l" horiz-adv-x="512" d="M33 0v94h174v1286h-164v95h268v-1381h156v-94h-434z" />
<glyph unicode="m" horiz-adv-x="1761" d="M55 0v94h152v735h-152v95h256v-174q95 107 177 152.5t180 45.5q199 0 260 -164q160 164 358 164q149 0 214 -76.5t65 -255.5v-522h151v-94h-405v94h149v522q0 126 -46 183t-146 57q-179 0 -324 -176v-586h152v-94h-406v94h150v522q0 125 -43.5 182.5t-137.5 57.5 q-168 0 -348 -233v-529h154v-94h-410z" />
<glyph unicode="n" horiz-adv-x="1171" d="M55 0v94h152v735h-152v95h256v-174q176 198 385 198q149 0 214 -76.5t65 -255.5v-522h151v-94h-405v94h149v522q0 126 -45.5 182t-146.5 56q-191 0 -367 -231v-529h154v-94h-410z" />
<glyph unicode="o" horiz-adv-x="1143" d="M66 461q0 208 144 347.5t361 139.5t360.5 -139t143.5 -347.5t-143 -347.5t-360.5 -139t-361.5 139t-144 347zM174 462.5q0 -170.5 113.5 -282.5t284 -112t285 112.5t114.5 282.5t-113.5 281.5t-286 111.5t-285 -111.5t-112.5 -282z" />
<glyph unicode="p" horiz-adv-x="1235" d="M55 -332h150v1161h-150v95h254v-174q157 198 400 198q202 0 331 -135.5t129 -349.5q0 -203 -137 -346q-134 -140 -332 -140q-246 0 -391 220v-529h160v-94h-414v94zM313 465.5q0 -163.5 112 -277.5t268.5 -114t262 113t105.5 283.5t-103.5 278t-265 107.5t-270.5 -113.5 t-109 -277z" />
<glyph unicode="q" horiz-adv-x="1235" d="M66 468.5q0 208.5 129 344t331 135.5q243 0 400 -198v174h254v-95h-150v-1161h150v-94h-414v94h160v529q-145 -220 -391 -220q-198 0 -332 140q-137 143 -137 351.5zM174 471.5q0 -169.5 110 -282.5t264 -113t264 114t110 276.5t-109 276t-270.5 113.5t-265 -107.5 t-103.5 -277z" />
<glyph unicode="r" horiz-adv-x="772" d="M55 0v94h152v735h-152v95h256v-125q99 151 232 151q184 0 194 -198h-86q-8 106 -112 106q-228 0 -228 -444v-320h154v-94h-410z" />
<glyph unicode="s" horiz-adv-x="985" d="M127 705.5q0 105.5 90 175t238 69.5q205 0 286 -129l-2 103h95v-269h-95q-20 99 -96 154t-184 55t-168 -42.5t-60 -110t45.5 -101.5t178.5 -59l129 -25q303 -58 303 -268q0 -121 -92 -195.5t-242 -74.5q-197 0 -330 135l2 -123h-96v328h96q28 -118 114.5 -184t199.5 -66 t178 49.5t65 122.5t-50 114t-171 66l-121 25q-179 37 -246 91t-67 159.5z" />
<glyph unicode="t" horiz-adv-x="569" d="M29 829v95h157v364h103v-364h178v-95h-178v-583q0 -115 22 -139.5t83 -24.5t97 6v-90q-62 -6 -102 -6q-125 0 -164 35t-39 198v604h-157z" />
<glyph unicode="u" horiz-adv-x="1161" d="M39 829v95h256v-617q0 -125 45.5 -181t146.5 -56q191 0 367 231v528h-154v95h258v-830h152v-94h-256v176q-175 -201 -385 -201q-148 0 -213.5 77t-65.5 255v522h-151z" />
<glyph unicode="v" horiz-adv-x="944" d="M-49 829v95h407v-95h-161l278 -716l268 716h-161v95h407v-95h-139l-332 -854h-80l-348 854h-139z" />
<glyph unicode="w" horiz-adv-x="1507" d="M-6 829v95h397v-95h-164l240 -692l207 692h-142v95h451v-95h-154l203 -692l244 692h-154v95h400v-95h-150l-303 -854h-78l-241 797l-244 -797h-78l-299 854h-135z" />
<glyph unicode="x" horiz-adv-x="1012" d="M14 0v94h144l297 379l-279 356h-135v95h387v-95h-131l217 -280l219 280h-135v95h403v-95h-151l-279 -354l279 -381h151v-94h-403v94h131l-217 303l-240 -303h138v-94h-396z" />
<glyph unicode="y" horiz-adv-x="981" d="M-23 829v95h361v-95h-135l280 -643l287 643h-145v95h370v-95h-118l-523 -1161h156v-94h-414v94h152l184 414l-340 747h-115z" />
<glyph unicode="z" horiz-adv-x="973" d="M90 0v94l623 735h-510v-157h-97v252h746v-72l-641 -758h555v172h94v-266h-770z" />
<glyph unicode="{" horiz-adv-x="1024" d="M176 485v90q20 -2 49 -2q139 0 196.5 64.5t57.5 222.5v240q0 227 68.5 302t257.5 75h43v-88h-37q-135 0 -182 -51.5t-47 -213.5v-241q0 -175 -43 -248t-152 -105q109 -32 152 -104t43 -248v-241q0 -162 46.5 -212.5t180.5 -50.5h39v-88h-43q-189 0 -257.5 74.5 t-68.5 300.5v240q0 158 -58 222t-200 64z" />
<glyph unicode="|" horiz-adv-x="1024" d="M467 -483v2048h90v-2048h-90z" />
<glyph unicode="}" horiz-adv-x="1024" d="M176 -326h39q134 0 180.5 50.5t46.5 212.5v241q0 174 43.5 247t153.5 105q-110 32 -153.5 105t-43.5 248v241q0 162 -47 213.5t-182 51.5h-37v88h43q189 0 257.5 -75t68.5 -302v-240q0 -158 58 -222.5t200 -64.5l45 2v-90l-45 2q-142 0 -200 -64t-58 -222v-240 q0 -226 -68.5 -300.5t-257.5 -74.5h-43v88z" />
<glyph unicode="~" horiz-adv-x="1706" d="M178 481v92q207 146 387 146q100 0 271 -61q12 -5 19.5 -7.5t26.5 -9.5q168 -61 261 -61q160 0 387 159v-92q-211 -147 -387 -147q-99 0 -266 61q-16 6 -25 9t-30 11q-167 60 -257 60q-161 0 -387 -160z" />
<glyph unicode="&#xa0;" />
<glyph unicode="&#xa1;" horiz-adv-x="524" d="M154 1386q0 46 31 76.5t77.5 30.5t77.5 -30.5t31 -76.5t-31.5 -77t-78 -31t-77 31t-30.5 77zM197 0l18 1147h92l21 -1147h-131z" />
<glyph unicode="&#xa2;" d="M94 477q0 203 142 341t350 138q50 0 100 -6l82 244h86l-90 -268q93 -41 143 -109l-6 117h88v-307h-84q-64 167 -170 209l-245 -736q48 -14 96 -14q188 0 342 178l78 -63q-189 -211 -431 -211q-60 0 -118 14l-90 -266h-84l96 293q-136 62 -210.5 179t-74.5 267zM205 504 q0 -276 207 -377l245 731l-77 8q-156 0 -265.5 -110.5t-109.5 -251.5z" />
<glyph unicode="&#xa3;" d="M88 647v86h188q-75 225 -75 376.5t101.5 253t266 101.5t261 -87t96.5 -228q0 -46 -13 -100h-106q8 48 8 86q0 108 -64.5 168.5t-180.5 60.5t-185.5 -75t-69.5 -182.5t74 -373.5h227v-86h-208q26 -120 26 -239.5t-63 -243.5q164 -90 315 -90q203 0 203 205q0 43 -14 89 l102 1q18 -56 18 -115q0 -136 -77.5 -210.5t-222.5 -74.5t-373 109q-90 -86 -164 -100l-43 106q118 40 168.5 119.5t50.5 211t-33 232.5h-213z" />
<glyph unicode="&#xa4;" d="M0 543l25 82h104q-2 38 -2 115.5t2 113.5h-129l25 82h110q26 276 126.5 402t293.5 126q92 0 175.5 -48.5t119.5 -125.5v146h102v-398h-92q-20 142 -108 235t-197 93q-144 0 -214.5 -97.5t-90.5 -332.5h547l-25 -82h-528q-2 -36 -2 -113.5t2 -115.5h430l-25 -82h-399 q21 -247 97 -359t228 -112q238 0 289 274h105q-37 -183 -137 -279t-257 -96q-208 0 -312 135.5t-128 436.5h-135z" />
<glyph unicode="&#xa5;" d="M-6 1341v95h358v-95h-145l317 -610l307 610h-135v95h357v-95h-111l-158 -303h254v-84h-297l-118 -227h415v-84h-460v-549h190v-94h-494v94h189v551h-455v82h412l-119 229h-293v82h248l-162 303h-100z" />
<glyph unicode="&#xa6;" horiz-adv-x="1024" d="M467 -350v758h90v-758h-90zM467 674v758h90v-758h-90z" />
<glyph unicode="&#xa7;" horiz-adv-x="1024" d="M78 801q0 101 73 173.5t177 72.5q38 -3 57 -7q-80 84 -112.5 141.5t-32.5 110.5q0 94 68 138.5t212 44.5h217v-279h-96v188h-117q-103 0 -137.5 -20.5t-34.5 -65.5q0 -79 97 -184l335 -362q100 -109 131 -167t31 -118q0 -106 -76 -177t-192 -71h-25q135 -115 135 -252 q0 -198 -284 -198h-244v323h98v-233h123q193 0 193 116q0 72 -121 203l-320 344q-94 103 -124.5 161t-30.5 118zM182 821q0 -92 92 -192l187 -201q112 -121 217 -121q72 0 119 44t47 114t-92 172l-187 201q-114 123 -217 123q-72 0 -119 -44t-47 -96z" />
<glyph unicode="&#xa8;" horiz-adv-x="1024" d="M281 1137v161h141v-161h-141zM602 1137v161h141v-161h-141z" />
<glyph unicode="&#xa9;" horiz-adv-x="1706" d="M123 721q0 299 217 520q207 211 512 211q307 0 520 -215q211 -209 211 -516q0 -305 -211 -512q-107 -106 -241.5 -162.5t-278.5 -56.5q-299 0 -514 217q-215 213 -215 514zM195 721q0 -269 194 -463q195 -195 463 -195q130 0 251.5 51t217.5 146q190 188 190 460 q0 274 -190 466q-194 194 -469 194q-273 0 -461 -190q-196 -200 -196 -469zM471 722.5q0 207.5 107 330.5t282 123q132 0 222.5 -72t103.5 -186h-105q-20 81 -79.5 126.5t-147.5 45.5q-126 0 -196 -97.5t-70 -270t71.5 -270.5t194.5 -98q91 0 156 52.5t84 140.5h102 q-11 -123 -108 -201t-255 -78t-260 123.5t-102 331z" />
<glyph unicode="&#xaa;" horiz-adv-x="920" d="M41 1153.5q0 146.5 97 242t263 95.5t285 -139v123h191v-66h-113v-516h113v-66h-191v138q-107 -154 -295 -154q-146 0 -246 98q-104 98 -104 244.5zM123 1156.5q0 -118.5 81.5 -197t197.5 -78.5t199 80t83 194t-83 193t-204 79t-197.5 -76t-76.5 -194.5z" />
<glyph unicode="&#xab;" horiz-adv-x="944" d="M131 461l258 313h135l-258 -313l258 -311h-135zM438 461l258 313h135l-258 -313l258 -311h-135z" />
<glyph unicode="&#xac;" horiz-adv-x="1706" d="M254 774v82h1198v-502h-78v420h-1120z" />
<glyph unicode="&#xad;" horiz-adv-x="635" d="M68 420v102h501v-102h-501z" />
<glyph unicode="&#xae;" horiz-adv-x="1706" d="M123 721q0 299 217 520q207 211 512 211q307 0 520 -215q211 -209 211 -516q0 -305 -211 -512q-107 -106 -241.5 -162.5t-278.5 -56.5q-299 0 -514 217q-215 213 -215 514zM195 721q0 -269 194 -463q195 -195 463 -195q130 0 251.5 51t217.5 146q190 188 190 460 q0 274 -190 466q-194 194 -469 194q-273 0 -461 -190q-196 -200 -196 -469zM569 309v846h305q180 0 264.5 -56.5t84.5 -176.5q0 -89 -55.5 -149t-147.5 -71l190 -393h-131l-182 377h-213v-377h-115zM684 764h168q145 0 199.5 36t54.5 120t-61.5 120.5t-192.5 36.5h-168v-313 z" />
<glyph unicode="&#xaf;" horiz-adv-x="1024" d="M256 1159v117h512v-117h-512z" />
<glyph unicode="&#xb0;" horiz-adv-x="674" d="M63 1175.5q0 114.5 80.5 194.5t193.5 80t193 -80.5t80 -194t-80 -193t-194.5 -79.5t-193.5 79t-79 193.5zM125 1176q0 -89 62.5 -151t150.5 -62t150.5 62t62.5 150t-63 151t-151 63t-150 -62t-62 -151z" />
<glyph unicode="&#xb1;" horiz-adv-x="1706" d="M254 59v82h1198v-82h-1198zM254 727v80h559v354h80v-354h559v-80h-559v-352h-80v352h-559z" />
<glyph unicode="&#xb2;" horiz-adv-x="692" d="M61 575v58q58 63 161 173q308 331 308 435q0 71 -50.5 113.5t-143 42.5t-146 -62.5t-53.5 -179.5v-12h-69q-2 6 -2 12v19q0 129 75 204.5t197 75.5t195 -58.5t73 -148.5q0 -131 -403 -554l-58 -60h408v160h74v-218h-566z" />
<glyph unicode="&#xb3;" horiz-adv-x="692" d="M66 813v10h69q4 -94 60 -149.5t145 -55.5t148 53.5t59 136t-63 135t-165 52.5l-26 -2v58q116 0 182 47t66 126t-52.5 125t-142 46t-139.5 -51t-54 -146h-67v2q0 117 73 185.5t192 68.5t192 -64t73 -151t-49.5 -141.5t-134.5 -71.5q87 -15 139 -75t52 -153.5t-80 -166 t-202 -72.5t-198.5 69t-76.5 185z" />
<glyph unicode="&#xb4;" horiz-adv-x="1024" d="M387 1059l209 348h152l-269 -348h-92z" />
<glyph unicode="&#xb5;" horiz-adv-x="1094" d="M-111 -424l316 1487h121l-123 -590q-17 -81 -17 -141q0 -126 60 -192t180.5 -66t213 109t136.5 313l125 567h121l-166 -786q-25 -113 -25 -136q0 -63 68 -63q17 0 39 2l-18 -96q-39 -13 -76 -13q-133 0 -133 127q0 18 4 45q-43 -83 -123.5 -127.5t-183 -44.5t-175 45.5 t-104.5 126.5l-119 -567h-121z" />
<glyph unicode="&#xb6;" horiz-adv-x="1024" d="M90 1133q0 154 108.5 250t286.5 96h447v-64h-129v-1415h-70v1415h-192v-1415h-70v782q-175 8 -278 102.5t-103 248.5z" />
<glyph unicode="&#xb7;" horiz-adv-x="524" d="M154 741.5q0 45.5 31 77t77.5 31.5t77.5 -31t31 -77t-31 -76.5t-77.5 -30.5t-77.5 30.5t-31 76z" />
<glyph unicode="&#xb8;" horiz-adv-x="1024" d="M303 -342q150 -35 238 -35q131 0 131 90q0 105 -146 105q-30 0 -46 -2l-1 184h66v-111h14q108 0 165.5 -44t57.5 -128.5t-58 -130t-165.5 -45.5t-255.5 41v76z" />
<glyph unicode="&#xb9;" horiz-adv-x="692" d="M203 575v58h119v747h-111v58h186v-805h117v-58h-311z" />
<glyph unicode="&#xba;" horiz-adv-x="858" d="M49 1150.5q0 145.5 108.5 243t271 97.5t270.5 -97.5t108 -243t-107.5 -242.5t-271 -97t-271.5 97t-108 242.5zM131 1151.5q0 -119.5 85 -198.5t213 -79t214 79t86 198.5t-85.5 197.5t-215 78t-213.5 -78t-84 -197.5z" />
<glyph unicode="&#xbb;" horiz-adv-x="944" d="M113 150l256 311l-256 313h133l258 -313l-258 -311h-133zM420 150l258 311l-258 313h135l258 -313l-258 -311h-135z" />
<glyph unicode="&#xbc;" horiz-adv-x="1663" d="M195 633v53h112v698h-104v54h178v-752h108v-53h-294zM317 -29l930 1493h94l-929 -1493h-95zM1042 221v51l381 533h58v-533h112v-51h-112v-168h112v-53h-297v53h113v168h-367zM1114 272h295v293q0 50 16 150z" />
<glyph unicode="&#xbd;" horiz-adv-x="1663" d="M195 633v53h112v698h-104v54h178v-752h108v-53h-294zM317 -29l930 1493h94l-929 -1493h-95zM1059 0v53q51 55 143 151q305 319 305 417q0 66 -48.5 105.5t-136.5 39.5t-138.5 -58t-50.5 -167v-13h-65q-3 9 -3 31q0 121 71.5 190.5t188 69.5t185.5 -53.5t69 -138.5 q0 -125 -387 -520l-53 -54h391v150h69v-203h-540z" />
<glyph unicode="&#xbe;" horiz-adv-x="1663" d="M63 856v8h66q3 -86 56.5 -138t139 -52t141.5 49t56 126t-59.5 126t-157.5 49l-26 -2v53q112 2 174.5 46t62.5 117.5t-49.5 116t-132.5 42.5q-179 0 -189 -185h-63v2q0 110 70 174t183.5 64t183 -59.5t69.5 -140.5t-47 -132t-127 -67q81 -14 130.5 -69.5t49.5 -143 t-76 -156t-191.5 -68.5t-189.5 65.5t-74 174.5zM319 -29l930 1493h94l-929 -1493h-95zM1044 221v51l381 533h58v-533h112v-51h-112v-168h112v-53h-297v53h113v168h-367zM1116 272h295v293q0 50 16 150z" />
<glyph unicode="&#xbf;" horiz-adv-x="1042" d="M147 371q0 176 101.5 286t269.5 125v375h111v-471l-35 2q-158 0 -247 -87.5t-89 -226.5t80.5 -220.5t200.5 -81.5t192.5 78t77.5 210h108q-4 -171 -110 -278t-276.5 -107t-277 110t-106.5 286zM465 1394.5q0 46.5 31 77.5t77 31t76.5 -31t30.5 -77t-30 -76.5t-77 -30.5 t-77.5 30t-30.5 76.5z" />
<glyph unicode="&#xc0;" horiz-adv-x="1356" d="M-37 0v100h143l467 1274h-149v101h508v-101h-150l467 -1274h144v-100h-432v100h167l-131 361h-639l-131 -361h168v-100h-432zM397 559h561l-280 782zM442 1962h152l209 -348h-92z" />
<glyph unicode="&#xc1;" horiz-adv-x="1356" d="M-37 0v100h143l467 1274h-149v101h508v-101h-150l467 -1274h144v-100h-432v100h167l-131 361h-639l-131 -361h168v-100h-432zM397 559h561l-280 782zM553 1614l209 348h152l-269 -348h-92z" />
<glyph unicode="&#xc2;" horiz-adv-x="1356" d="M-37 0v100h143l467 1274h-149v101h508v-101h-150l467 -1274h144v-100h-432v100h167l-131 361h-639l-131 -361h168v-100h-432zM397 559h561l-280 782zM402 1614l200 348h152l200 -348h-92l-184 262l-184 -262h-92z" />
<glyph unicode="&#xc3;" horiz-adv-x="1356" d="M-37 0v100h143l467 1274h-149v101h508v-101h-150l467 -1274h144v-100h-432v100h167l-131 361h-639l-131 -361h168v-100h-432zM389 1671q45 182 195 182q36 0 54 -6l96 -33q30 -10 55 -10q62 0 96 74h82q-53 -182 -191 -182q-29 0 -65 10l-96 31q-26 8 -54 8 q-59 0 -92 -74h-80zM397 559h561l-280 782z" />
<glyph unicode="&#xc4;" horiz-adv-x="1356" d="M-37 0v100h143l467 1274h-149v101h508v-101h-150l467 -1274h144v-100h-432v100h167l-131 361h-639l-131 -361h168v-100h-432zM397 559h561l-280 782zM447 1692v161h141v-161h-141zM768 1692v161h141v-161h-141z" />
<glyph unicode="&#xc5;" horiz-adv-x="1356" d="M-37 0v100h143l467 1274h-149v101h508v-101h-150l467 -1274h144v-100h-432v100h167l-131 361h-639l-131 -361h168v-100h-432zM397 559h561l-280 782zM459 1751.5q0 92.5 63.5 156.5t155.5 64t157.5 -64.5t65.5 -156t-65 -155.5t-157.5 -64t-156 63.5t-63.5 156zM545 1751 q0 -55 39.5 -94t95 -39t94.5 39t39 94.5t-39 95t-94 39.5t-95 -40t-40 -95z" />
<glyph unicode="&#xc6;" horiz-adv-x="1962" d="M-53 0v100h129l747 1274h-209v101h1278v-363h-118v262h-650v-543h494v-100h-494v-631h650v256h118v-356h-1054v100h168v361h-598l-209 -361h180v-100h-432zM467 559h539v815h-62z" />
<glyph unicode="&#xc7;" horiz-adv-x="1522" d="M76 737q0 350 252 580q204 186 499 186q173 0 308 -68t217 -196v236h102v-459h-92q-51 182 -192 284.5t-343 102.5q-120 0 -234 -45t-206 -134q-190 -182 -190 -482t182 -485t471 -185q197 0 334 104.5t182 288.5h104q-61 -238 -227.5 -366t-415.5 -128q-292 0 -499 189 q-252 228 -252 577zM643 -342q150 -35 238 -35q131 0 131 90q0 105 -146 105q-30 0 -46 -2l-1 184h66v-111h14q108 0 165.5 -44t57.5 -128.5t-58 -130t-165.5 -45.5t-255.5 41v76z" />
<glyph unicode="&#xc8;" horiz-adv-x="1208" d="M59 0v100h170v1274h-170v101h1080v-363h-119v262h-672v-543h516v-100h-516v-631h672v256h119v-356h-1080zM417 1962h152l209 -348h-92z" />
<glyph unicode="&#xc9;" horiz-adv-x="1208" d="M59 0v100h170v1274h-170v101h1080v-363h-119v262h-672v-543h516v-100h-516v-631h672v256h119v-356h-1080zM528 1614l209 348h152l-269 -348h-92z" />
<glyph unicode="&#xca;" horiz-adv-x="1208" d="M59 0v100h170v1274h-170v101h1080v-363h-119v262h-672v-543h516v-100h-516v-631h672v256h119v-356h-1080zM377 1614l200 348h152l200 -348h-92l-184 262l-184 -262h-92z" />
<glyph unicode="&#xcb;" horiz-adv-x="1208" d="M59 0v100h170v1274h-170v101h1080v-363h-119v262h-672v-543h516v-100h-516v-631h672v256h119v-356h-1080zM422 1692v161h141v-161h-141zM743 1692v161h141v-161h-141z" />
<glyph unicode="&#xcc;" horiz-adv-x="578" d="M41 0v100h188v1274h-188v101h498v-101h-191v-1274h191v-100h-498zM53 1962h152l209 -348h-92z" />
<glyph unicode="&#xcd;" horiz-adv-x="578" d="M41 0v100h188v1274h-188v101h498v-101h-191v-1274h191v-100h-498zM164 1614l209 348h152l-269 -348h-92z" />
<glyph unicode="&#xce;" horiz-adv-x="578" d="M13 1614l200 348h152l200 -348h-92l-184 262l-184 -262h-92zM41 0v100h188v1274h-188v101h498v-101h-191v-1274h191v-100h-498z" />
<glyph unicode="&#xcf;" horiz-adv-x="578" d="M41 0v100h188v1274h-188v101h498v-101h-191v-1274h191v-100h-498zM58 1692v161h141v-161h-141zM379 1692v161h141v-161h-141z" />
<glyph unicode="&#xd0;" horiz-adv-x="1466" d="M31 731v94h209v549h-170v101h458q342 0 482 -78q381 -217 381 -660q0 -210 -101 -380.5t-284 -272.5q-150 -84 -478 -84h-458v100h170v631h-209zM358 100h170q340 0 541 175.5t201 467.5q0 367 -322 555q-130 76 -422 76h-168v-551h422v-92h-422v-631z" />
<glyph unicode="&#xd1;" horiz-adv-x="1470" d="M59 0v100h170v1274h-170v101h351l710 -1280v1179h-155v101h444v-101h-170v-1403h-119l-772 1375v-1246h158v-100h-447zM446 1671q45 182 195 182q36 0 54 -6l96 -33q30 -10 55 -10q62 0 96 74h82q-53 -182 -191 -182q-29 0 -65 10l-96 31q-26 8 -54 8q-59 0 -92 -74h-80z " />
<glyph unicode="&#xd2;" horiz-adv-x="1655" d="M76 738q0 349 252 579q204 186 499 186q296 0 500 -186q252 -234 252 -580q0 -348 -252 -577q-207 -189 -500 -189q-292 0 -499 189q-252 230 -252 578zM197 738q0 -302 198 -494q82 -80 196.5 -125t236.5 -45t236 44.5t204 132.5q190 186 190 486q0 304 -198 496 q-84 81 -197.5 125.5t-235 44.5t-235 -44.5t-197.5 -125.5q-198 -192 -198 -495zM591 1962h152l209 -348h-92z" />
<glyph unicode="&#xd3;" horiz-adv-x="1655" d="M76 738q0 349 252 579q204 186 499 186q296 0 500 -186q252 -234 252 -580q0 -348 -252 -577q-207 -189 -500 -189q-292 0 -499 189q-252 230 -252 578zM197 738q0 -302 198 -494q82 -80 196.5 -125t236.5 -45t236 44.5t204 132.5q190 186 190 486q0 304 -198 496 q-84 81 -197.5 125.5t-235 44.5t-235 -44.5t-197.5 -125.5q-198 -192 -198 -495zM702 1614l209 348h152l-269 -348h-92z" />
<glyph unicode="&#xd4;" horiz-adv-x="1655" d="M76 738q0 349 252 579q204 186 499 186q296 0 500 -186q252 -234 252 -580q0 -348 -252 -577q-207 -189 -500 -189q-292 0 -499 189q-252 230 -252 578zM197 738q0 -302 198 -494q82 -80 196.5 -125t236.5 -45t236 44.5t204 132.5q190 186 190 486q0 304 -198 496 q-84 81 -197.5 125.5t-235 44.5t-235 -44.5t-197.5 -125.5q-198 -192 -198 -495zM551 1614l200 348h152l200 -348h-92l-184 262l-184 -262h-92z" />
<glyph unicode="&#xd5;" horiz-adv-x="1655" d="M76 738q0 349 252 579q204 186 499 186q296 0 500 -186q252 -234 252 -580q0 -348 -252 -577q-207 -189 -500 -189q-292 0 -499 189q-252 230 -252 578zM197 738q0 -302 198 -494q82 -80 196.5 -125t236.5 -45t236 44.5t204 132.5q190 186 190 486q0 304 -198 496 q-84 81 -197.5 125.5t-235 44.5t-235 -44.5t-197.5 -125.5q-198 -192 -198 -495zM538 1671q45 182 195 182q36 0 54 -6l96 -33q30 -10 55 -10q62 0 96 74h82q-53 -182 -191 -182q-29 0 -65 10l-96 31q-26 8 -54 8q-59 0 -92 -74h-80z" />
<glyph unicode="&#xd6;" horiz-adv-x="1655" d="M76 738q0 349 252 579q204 186 499 186q296 0 500 -186q252 -234 252 -580q0 -348 -252 -577q-207 -189 -500 -189q-292 0 -499 189q-252 230 -252 578zM197 738q0 -302 198 -494q82 -80 196.5 -125t236.5 -45t236 44.5t204 132.5q190 186 190 486q0 304 -198 496 q-84 81 -197.5 125.5t-235 44.5t-235 -44.5t-197.5 -125.5q-198 -192 -198 -495zM596 1692v161h141v-161h-141zM917 1692v161h141v-161h-141z" />
<glyph unicode="&#xd7;" horiz-adv-x="1706" d="M309 123l488 487l-488 488l58 57l487 -487l487 487l58 -57l-488 -488l488 -487l-58 -57l-487 487l-487 -487z" />
<glyph unicode="&#xd8;" horiz-adv-x="1655" d="M76 742q0 345 252 575q204 186 499 186q240 0 433 -129l147 189h119l-197 -248q250 -238 250 -578q0 -348 -252 -577q-207 -189 -500 -189q-251 0 -456 150l-170 -213h-119l219 274q-106 99 -165.5 245.5t-59.5 314.5zM197 737q0 -144 45 -266t129 -203l821 1022 q-160 113 -365 113q-120 0 -234 -45t-206 -134q-190 -182 -190 -487zM440 207q173 -133 387 -133q123 0 237 44.5t204 132.5q190 186 190 486q0 296 -192 492z" />
<glyph unicode="&#xd9;" horiz-adv-x="1442" d="M39 1374v101h461v-101h-172v-837q0 -155 20 -228.5t70 -126.5q100 -106 301 -106q205 0 307 108q48 51 68 124.5t20 228.5v837h-172v101h461v-101h-172v-891q0 -512 -511 -512t-511 512v891h-170zM485 1962h152l209 -348h-92z" />
<glyph unicode="&#xda;" horiz-adv-x="1442" d="M39 1374v101h461v-101h-172v-837q0 -155 20 -228.5t70 -126.5q100 -106 301 -106q205 0 307 108q48 51 68 124.5t20 228.5v837h-172v101h461v-101h-172v-891q0 -512 -511 -512t-511 512v891h-170zM596 1614l209 348h152l-269 -348h-92z" />
<glyph unicode="&#xdb;" horiz-adv-x="1442" d="M39 1374v101h461v-101h-172v-837q0 -155 20 -228.5t70 -126.5q100 -106 301 -106q205 0 307 108q48 51 68 124.5t20 228.5v837h-172v101h461v-101h-172v-891q0 -512 -511 -512t-511 512v891h-170zM445 1614l200 348h152l200 -348h-92l-184 262l-184 -262h-92z" />
<glyph unicode="&#xdc;" horiz-adv-x="1442" d="M39 1374v101h461v-101h-172v-837q0 -155 20 -228.5t70 -126.5q100 -106 301 -106q205 0 307 108q48 51 68 124.5t20 228.5v837h-172v101h461v-101h-172v-891q0 -512 -511 -512t-511 512v891h-170zM490 1692v161h141v-161h-141zM811 1692v161h141v-161h-141z" />
<glyph unicode="&#xdd;" horiz-adv-x="1251" d="M-8 1374v101h461v-101h-195l365 -633l362 633h-186v101h461v-101h-146l-430 -735v-539h190v-100h-497v100h188v551l-426 723h-147zM502 1614l209 348h152l-269 -348h-92z" />
<glyph unicode="&#xde;" horiz-adv-x="1188" d="M41 0v100h188v1274h-188v101h498v-101h-191v-188h256q278 0 422.5 -114.5t144.5 -334.5q0 -448 -567 -448h-256v-189h191v-100h-498zM348 383h248q232 0 343.5 86t111.5 265.5t-111 265t-344 85.5h-248v-702z" />
<glyph unicode="&#xdf;" horiz-adv-x="1110" d="M55 0v94h144v938q0 459 393 459q162 0 264 -99t102 -237q0 -271 -219 -334q144 -31 222.5 -144.5t78.5 -290.5t-93 -291.5t-234 -114.5q-93 0 -178 61l51 82q59 -45 129 -45q101 0 160 85t59 246t-96.5 259t-268.5 98l-41 -2l1 88q155 5 239 79t84 200t-73 201t-205 75 q-273 0 -273 -373v-940h141v-94h-387z" />
<glyph unicode="&#xe0;" horiz-adv-x="1225" d="M55 469q0 208 129.5 343.5t331.5 135.5q242 0 397 -198v174h256v-95h-151v-735h151v-94h-256v197q-143 -220 -391 -220q-197 0 -329 140q-138 144 -138 352zM164 470q0 -168 109 -281t263 -113t264.5 114t110.5 277.5t-110 276t-271.5 112.5t-263.5 -109t-102 -277z M317 1407h152l209 -348h-92z" />
<glyph unicode="&#xe1;" horiz-adv-x="1225" d="M55 469q0 208 129.5 343.5t331.5 135.5q242 0 397 -198v174h256v-95h-151v-735h151v-94h-256v197q-143 -220 -391 -220q-197 0 -329 140q-138 144 -138 352zM164 470q0 -168 109 -281t263 -113t264.5 114t110.5 277.5t-110 276t-271.5 112.5t-263.5 -109t-102 -277z M428 1059l209 348h152l-269 -348h-92z" />
<glyph unicode="&#xe2;" horiz-adv-x="1225" d="M55 469q0 208 129.5 343.5t331.5 135.5q242 0 397 -198v174h256v-95h-151v-735h151v-94h-256v197q-143 -220 -391 -220q-197 0 -329 140q-138 144 -138 352zM164 470q0 -168 109 -281t263 -113t264.5 114t110.5 277.5t-110 276t-271.5 112.5t-263.5 -109t-102 -277z M277 1059l200 348h152l200 -348h-92l-184 262l-184 -262h-92z" />
<glyph unicode="&#xe3;" horiz-adv-x="1225" d="M55 469q0 208 129.5 343.5t331.5 135.5q242 0 397 -198v174h256v-95h-151v-735h151v-94h-256v197q-143 -220 -391 -220q-197 0 -329 140q-138 144 -138 352zM164 470q0 -168 109 -281t263 -113t264.5 114t110.5 277.5t-110 276t-271.5 112.5t-263.5 -109t-102 -277z M264 1116q45 182 195 182q36 0 54 -6l96 -33q30 -10 55 -10q62 0 96 74h82q-53 -182 -191 -182q-29 0 -65 10l-96 31q-26 8 -54 8q-59 0 -92 -74h-80z" />
<glyph unicode="&#xe4;" horiz-adv-x="1225" d="M55 469q0 208 129.5 343.5t331.5 135.5q242 0 397 -198v174h256v-95h-151v-735h151v-94h-256v197q-143 -220 -391 -220q-197 0 -329 140q-138 144 -138 352zM164 470q0 -168 109 -281t263 -113t264.5 114t110.5 277.5t-110 276t-271.5 112.5t-263.5 -109t-102 -277z M322 1137v161h141v-161h-141zM643 1137v161h141v-161h-141z" />
<glyph unicode="&#xe5;" horiz-adv-x="1225" d="M55 469q0 208 129.5 343.5t331.5 135.5q242 0 397 -198v174h256v-95h-151v-735h151v-94h-256v197q-143 -220 -391 -220q-197 0 -329 140q-138 144 -138 352zM164 470q0 -168 109 -281t263 -113t264.5 114t110.5 277.5t-110 276t-271.5 112.5t-263.5 -109t-102 -277z M344 1225q0 92 64.5 156.5t156.5 64.5t156.5 -64.5t64.5 -156.5t-64 -155.5t-156.5 -63.5t-157 63.5t-64.5 155.5zM432 1224.5q0 -55.5 39 -94t94.5 -38.5t94 38.5t38.5 94t-39 95.5t-94 40t-94 -40t-39 -95.5z" />
<glyph unicode="&#xe6;" horiz-adv-x="1804" d="M45 307q0 149 112.5 245.5t306.5 96.5t324 -120q3 18 3 40q0 140 -86.5 213.5t-239.5 73.5t-270 -37l-17 86q115 43 266 43q334 0 416 -219q160 219 422 219q199 0 327 -143.5t129 -372.5h-851q9 -160 120 -262t275 -102q90 0 169 52t134 148h117q-74 -142 -185.5 -217.5 t-248.5 -75.5q-244 0 -410 211q-63 -109 -160.5 -160t-261.5 -51t-277.5 91.5t-113.5 240.5zM145 314.5q0 -116.5 85 -182.5t234.5 -66t236.5 66.5t87 180t-84 181t-234.5 67.5t-237.5 -65t-87 -181.5zM889 518h741q-25 155 -119.5 246.5t-240 91.5t-251.5 -91t-130 -247z " />
<glyph unicode="&#xe7;" horiz-adv-x="1090" d="M68 463q0 215 137 348q66 65 155 101t183 36q202 0 319 -133l-2 109h94v-310h-94q-32 115 -116 178.5t-201 63.5q-162 0 -265.5 -110t-103.5 -282t107 -283t270 -111q192 0 342 176l65 -64q-172 -207 -398 -207t-359 134.5t-133 353.5zM336 -342q150 -35 238 -35 q131 0 131 90q0 105 -146 105q-30 0 -46 -2l-1 184h66v-111h14q108 0 165.5 -44t57.5 -128.5t-58 -130t-165.5 -45.5t-255.5 41v76z" />
<glyph unicode="&#xe8;" horiz-adv-x="1143" d="M66 461q0 208 144 347.5t368 139.5t360 -139.5t137 -376.5h-898q9 -161 120 -262.5t274 -101.5q116 0 207 52t144 148h116q-150 -293 -467 -293q-217 0 -361 139t-144 347zM176 518h791q-25 160 -129 249t-262.5 89t-267 -92.5t-132.5 -245.5zM335 1407h152l209 -348h-92 z" />
<glyph unicode="&#xe9;" horiz-adv-x="1143" d="M66 461q0 208 144 347.5t368 139.5t360 -139.5t137 -376.5h-898q9 -161 120 -262.5t274 -101.5q116 0 207 52t144 148h116q-150 -293 -467 -293q-217 0 -361 139t-144 347zM176 518h791q-25 160 -129 249t-262.5 89t-267 -92.5t-132.5 -245.5zM446 1059l209 348h152 l-269 -348h-92z" />
<glyph unicode="&#xea;" horiz-adv-x="1143" d="M66 461q0 208 144 347.5t368 139.5t360 -139.5t137 -376.5h-898q9 -161 120 -262.5t274 -101.5q116 0 207 52t144 148h116q-150 -293 -467 -293q-217 0 -361 139t-144 347zM176 518h791q-25 160 -129 249t-262.5 89t-267 -92.5t-132.5 -245.5zM295 1059l200 348h152 l200 -348h-92l-184 262l-184 -262h-92z" />
<glyph unicode="&#xeb;" horiz-adv-x="1143" d="M66 461q0 208 144 347.5t368 139.5t360 -139.5t137 -376.5h-898q9 -161 120 -262.5t274 -101.5q116 0 207 52t144 148h116q-150 -293 -467 -293q-217 0 -361 139t-144 347zM176 518h791q-25 160 -129 249t-262.5 89t-267 -92.5t-132.5 -245.5zM340 1137v161h141v-161 h-141zM661 1137v161h141v-161h-141z" />
<glyph unicode="&#xec;" horiz-adv-x="512" d="M-33 1407h152l209 -348h-92zM33 0v94h174v735h-164v95h268v-830h156v-94h-434z" />
<glyph unicode="&#xed;" horiz-adv-x="512" d="M33 0v94h174v735h-164v95h268v-830h156v-94h-434zM78 1059l209 348h152l-269 -348h-92z" />
<glyph unicode="&#xee;" horiz-adv-x="512" d="M-73 1059l200 348h152l200 -348h-92l-184 262l-184 -262h-92zM33 0v94h174v735h-164v95h268v-830h156v-94h-434z" />
<glyph unicode="&#xef;" horiz-adv-x="512" d="M-28 1137v161h141v-161h-141zM33 0v94h174v735h-164v95h268v-830h156v-94h-434zM293 1137v161h141v-161h-141z" />
<glyph unicode="&#xf0;" horiz-adv-x="1143" d="M66 461q0 208 144 347.5t361 139.5q91 0 185 -30l-174 247l-308 -98l-28 78l282 90l-161 240h104l154 -211l206 63l31 -74l-188 -57l239 -332q88 -121 125 -215.5t37 -191.5q0 -205 -144 -343.5t-360.5 -138.5t-360.5 139t-144 347zM174 462.5q0 -170.5 113 -282.5 t284.5 -112t285.5 112t114 282.5t-114 282t-285 111.5t-284.5 -111.5t-113.5 -282z" />
<glyph unicode="&#xf1;" horiz-adv-x="1171" d="M55 0v94h152v735h-152v95h256v-174q176 198 385 198q149 0 214 -76.5t65 -255.5v-522h151v-94h-405v94h149v522q0 126 -45.5 182t-146.5 56q-191 0 -367 -231v-529h154v-94h-410zM297 1116q45 182 195 182q36 0 54 -6l96 -33q30 -10 55 -10q62 0 96 74h82 q-53 -182 -191 -182q-29 0 -65 10l-96 31q-26 8 -54 8q-59 0 -92 -74h-80z" />
<glyph unicode="&#xf2;" horiz-adv-x="1143" d="M66 461q0 208 144 347.5t361 139.5t360.5 -139t143.5 -347.5t-143 -347.5t-360.5 -139t-361.5 139t-144 347zM174 462.5q0 -170.5 113.5 -282.5t284 -112t285 112.5t114.5 282.5t-113.5 281.5t-286 111.5t-285 -111.5t-112.5 -282zM335 1407h152l209 -348h-92z" />
<glyph unicode="&#xf3;" horiz-adv-x="1143" d="M66 461q0 208 144 347.5t361 139.5t360.5 -139t143.5 -347.5t-143 -347.5t-360.5 -139t-361.5 139t-144 347zM174 462.5q0 -170.5 113.5 -282.5t284 -112t285 112.5t114.5 282.5t-113.5 281.5t-286 111.5t-285 -111.5t-112.5 -282zM446 1059l209 348h152l-269 -348h-92z " />
<glyph unicode="&#xf4;" horiz-adv-x="1143" d="M66 461q0 208 144 347.5t361 139.5t360.5 -139t143.5 -347.5t-143 -347.5t-360.5 -139t-361.5 139t-144 347zM174 462.5q0 -170.5 113.5 -282.5t284 -112t285 112.5t114.5 282.5t-113.5 281.5t-286 111.5t-285 -111.5t-112.5 -282zM295 1059l200 348h152l200 -348h-92 l-184 262l-184 -262h-92z" />
<glyph unicode="&#xf5;" horiz-adv-x="1143" d="M66 461q0 208 144 347.5t361 139.5t360.5 -139t143.5 -347.5t-143 -347.5t-360.5 -139t-361.5 139t-144 347zM174 462.5q0 -170.5 113.5 -282.5t284 -112t285 112.5t114.5 282.5t-113.5 281.5t-286 111.5t-285 -111.5t-112.5 -282zM282 1116q45 182 195 182q36 0 54 -6 l96 -33q30 -10 55 -10q62 0 96 74h82q-53 -182 -191 -182q-29 0 -65 10l-96 31q-26 8 -54 8q-59 0 -92 -74h-80z" />
<glyph unicode="&#xf6;" horiz-adv-x="1143" d="M66 461q0 208 144 347.5t361 139.5t360.5 -139t143.5 -347.5t-143 -347.5t-360.5 -139t-361.5 139t-144 347zM174 462.5q0 -170.5 113.5 -282.5t284 -112t285 112.5t114.5 282.5t-113.5 281.5t-286 111.5t-285 -111.5t-112.5 -282zM340 1137v161h141v-161h-141zM661 1137 v161h141v-161h-141z" />
<glyph unicode="&#xf7;" horiz-adv-x="1706" d="M254 569v82h1198v-82h-1198zM756 264q0 41 29 71t69.5 30t69 -29.5t28.5 -70.5t-28.5 -70t-69.5 -29t-69.5 28.5t-28.5 69.5zM756 956q0 41 28.5 70t69.5 29t69.5 -28.5t28.5 -69.5t-28.5 -71t-69.5 -30t-69.5 29.5t-28.5 70.5z" />
<glyph unicode="&#xf8;" horiz-adv-x="1143" d="M61 -94l158 198q-153 159 -153 362t144 342.5t361 139.5q149 0 267 -67l102 127h111l-142 -181q166 -142 166 -358t-143 -355t-361 -139q-159 0 -282 76l-117 -145h-111zM174 463q0 -166 109 -281l497 619q-81 55 -196 55q-181 0 -295.5 -109.5t-114.5 -283.5zM354 127 q108 -59 217 -59q171 0 285.5 112.5t114.5 282.5q0 168 -119 289z" />
<glyph unicode="&#xf9;" horiz-adv-x="1161" d="M39 829v95h256v-617q0 -125 45.5 -181t146.5 -56q191 0 367 231v528h-154v95h258v-830h152v-94h-256v176q-175 -201 -385 -201q-148 0 -213.5 77t-65.5 255v522h-151zM305 1407h152l209 -348h-92z" />
<glyph unicode="&#xfa;" horiz-adv-x="1161" d="M39 829v95h256v-617q0 -125 45.5 -181t146.5 -56q191 0 367 231v528h-154v95h258v-830h152v-94h-256v176q-175 -201 -385 -201q-148 0 -213.5 77t-65.5 255v522h-151zM416 1059l209 348h152l-269 -348h-92z" />
<glyph unicode="&#xfb;" horiz-adv-x="1161" d="M39 829v95h256v-617q0 -125 45.5 -181t146.5 -56q191 0 367 231v528h-154v95h258v-830h152v-94h-256v176q-175 -201 -385 -201q-148 0 -213.5 77t-65.5 255v522h-151zM265 1059l200 348h152l200 -348h-92l-184 262l-184 -262h-92z" />
<glyph unicode="&#xfc;" horiz-adv-x="1161" d="M39 829v95h256v-617q0 -125 45.5 -181t146.5 -56q191 0 367 231v528h-154v95h258v-830h152v-94h-256v176q-175 -201 -385 -201q-148 0 -213.5 77t-65.5 255v522h-151zM310 1137v161h141v-161h-141zM631 1137v161h141v-161h-141z" />
<glyph unicode="&#xfd;" horiz-adv-x="981" d="M-23 829v95h361v-95h-135l280 -643l287 643h-145v95h370v-95h-118l-523 -1161h156v-94h-414v94h152l184 414l-340 747h-115zM367 1059l209 348h152l-269 -348h-92z" />
<glyph unicode="&#xfe;" horiz-adv-x="1241" d="M55 -332h150v1712h-150v95h254v-725q157 198 400 198q201 0 330.5 -136t129.5 -349q0 -203 -137 -346q-134 -140 -332 -140q-246 0 -391 220v-529h160v-94h-414v94zM313 465q0 -164 111 -277.5t268 -113.5t263 113t106 283.5t-103.5 278t-265 107.5t-270.5 -113.5 t-109 -277.5z" />
<glyph unicode="&#xff;" horiz-adv-x="981" d="M-23 829v95h361v-95h-135l280 -643l287 643h-145v95h370v-95h-118l-523 -1161h156v-94h-414v94h152l184 414l-340 747h-115zM261 1137v161h141v-161h-141zM582 1137v161h141v-161h-141z" />
<glyph unicode="&#x152;" horiz-adv-x="2150" d="M76 736.5q0 348.5 214 543.5t601 195h1077v-363h-119v262h-647v-543h494v-100h-494v-631h647v256h119v-356h-1077q-387 0 -601 194t-214 542.5zM197 739q0 -308 180.5 -472.5t515.5 -164.5q115 0 152.5 28.5t37.5 107.5v1005q0 78 -36.5 105.5t-153.5 27.5 q-339 0 -517.5 -164.5t-178.5 -472.5z" />
<glyph unicode="&#x153;" horiz-adv-x="1991" d="M66 461q0 208 144 347.5t361 139.5q294 0 453 -258q153 258 442 258q199 0 327.5 -144t129.5 -371l-852 -1q10 -161 121 -262.5t274 -101.5q91 0 171 52.5t135 147.5h114q-153 -293 -430 -293t-442 246q-155 -246 -443 -246q-217 0 -361 139t-144 347zM174 462.5 q0 -170.5 113.5 -282.5t284 -112t285 112.5t114.5 282.5t-113.5 281.5t-286 111.5t-285 -111.5t-112.5 -282zM1075 518h740q-26 155 -120.5 246.5t-239.5 91.5t-250 -90.5t-130 -247.5z" />
<glyph unicode="&#x178;" horiz-adv-x="1251" d="M-8 1374v101h461v-101h-195l365 -633l362 633h-186v101h461v-101h-146l-430 -735v-539h190v-100h-497v100h188v551l-426 723h-147zM396 1692v161h141v-161h-141zM717 1692v161h141v-161h-141z" />
<glyph unicode="&#x2c6;" horiz-adv-x="1024" d="M236 1059l200 348h152l200 -348h-92l-184 262l-184 -262h-92z" />
<glyph unicode="&#x2dc;" horiz-adv-x="1024" d="M223 1116q45 182 195 182q36 0 54 -6l96 -33q30 -10 55 -10q62 0 96 74h82q-53 -182 -191 -182q-29 0 -65 10l-96 31q-26 8 -54 8q-59 0 -92 -74h-80z" />
<glyph unicode="&#x2000;" horiz-adv-x="986" />
<glyph unicode="&#x2001;" horiz-adv-x="1972" />
<glyph unicode="&#x2002;" horiz-adv-x="986" />
<glyph unicode="&#x2003;" horiz-adv-x="1972" />
<glyph unicode="&#x2004;" horiz-adv-x="657" />
<glyph unicode="&#x2005;" horiz-adv-x="493" />
<glyph unicode="&#x2006;" horiz-adv-x="328" />
<glyph unicode="&#x2007;" horiz-adv-x="328" />
<glyph unicode="&#x2008;" horiz-adv-x="246" />
<glyph unicode="&#x2009;" horiz-adv-x="394" />
<glyph unicode="&#x200a;" horiz-adv-x="109" />
<glyph unicode="&#x2010;" horiz-adv-x="635" d="M68 420v102h501v-102h-501z" />
<glyph unicode="&#x2011;" horiz-adv-x="635" d="M68 420v102h501v-102h-501z" />
<glyph unicode="&#x2012;" horiz-adv-x="635" d="M68 420v102h501v-102h-501z" />
<glyph unicode="&#x2013;" horiz-adv-x="1024" d="M0 436v72h1024v-72h-1024z" />
<glyph unicode="&#x2014;" horiz-adv-x="2048" d="M0 436v72h2048v-72h-2048z" />
<glyph unicode="&#x2018;" horiz-adv-x="514" d="M139 1069l123 406h115l-123 -406h-115z" />
<glyph unicode="&#x2019;" horiz-adv-x="514" d="M139 1069l123 406h115l-123 -406h-115z" />
<glyph unicode="&#x201a;" horiz-adv-x="514" d="M139 -188l123 405h115l-123 -405h-115z" />
<glyph unicode="&#x201c;" horiz-adv-x="907" d="M139 1069l123 406h115l-123 -406h-115zM532 1069l123 406h117l-125 -406h-115z" />
<glyph unicode="&#x201d;" horiz-adv-x="907" d="M139 1069l123 406h115l-123 -406h-115zM532 1069l123 406h117l-125 -406h-115z" />
<glyph unicode="&#x201e;" horiz-adv-x="907" d="M139 -188l123 405h115l-123 -405h-115zM532 -188l123 405h117l-125 -405h-115z" />
<glyph unicode="&#x2022;" horiz-adv-x="1208" d="M307 762q0 123 87 209t209.5 86t209 -86.5t86.5 -208.5t-87.5 -209.5t-210 -87.5t-208.5 87t-86 210z" />
<glyph unicode="&#x2026;" horiz-adv-x="2048" d="M234 82q0 46 31 77t77.5 31t77.5 -30.5t31 -77t-31 -77t-77.5 -30.5t-77.5 30.5t-31 76.5zM916 82q0 46 31 77t77.5 31t77.5 -30.5t31 -77t-31 -77t-77.5 -30.5t-77.5 30.5t-31 76.5zM1600 82q0 46 31 77t77.5 31t77.5 -30.5t31 -77t-31 -77t-77.5 -30.5t-77.5 30.5 t-31 76.5z" />
<glyph unicode="&#x202f;" horiz-adv-x="394" />
<glyph unicode="&#x2039;" horiz-adv-x="635" d="M131 461l258 313h135l-258 -313l258 -311h-135z" />
<glyph unicode="&#x203a;" horiz-adv-x="635" d="M113 150l256 311l-256 313h133l258 -313l-258 -311h-133z" />
<glyph unicode="&#x205f;" horiz-adv-x="493" />
<glyph unicode="&#x20ac;" d="M0 543l25 82h104q-2 38 -2 115.5t2 113.5h-129l25 82h110q26 276 126.5 402t293.5 126q92 0 175.5 -48.5t119.5 -125.5v146h102v-398h-92q-20 142 -108 235t-197 93q-144 0 -214.5 -97.5t-90.5 -332.5h547l-25 -82h-528q-2 -36 -2 -113.5t2 -115.5h430l-25 -82h-399 q21 -247 97 -359t228 -112q238 0 289 274h105q-37 -183 -137 -279t-257 -96q-208 0 -312 135.5t-128 436.5h-135z" />
<glyph unicode="&#x2122;" horiz-adv-x="1706" d="M274 1403v51h420v-51h-174v-479h-67v479h-179zM825 924v530h101l174 -440l162 440h102v-530h-59v479l-181 -479h-49l-190 479v-479h-60z" />
<glyph unicode="&#xe000;" horiz-adv-x="925" d="M0 0v925h925v-925h-925z" />
<glyph unicode="&#xfb01;" horiz-adv-x="1075" d="M43 0v94h166v735h-166v95h166v278q0 148 58 210.5t194 62.5q43 0 88 -7v-89q-58 5 -82 5q-87 0 -120.5 -40t-33.5 -148v-272h181v-95h-181v-735h181v-94h-451zM596 0v94h174v735h-164v95h268v-830h156v-94h-434zM764 1112v240h110v-240h-110z" />
<glyph unicode="&#xfb02;" horiz-adv-x="1075" d="M43 0v94h166v735h-166v95h166v278q0 148 58 210.5t194 62.5q43 0 88 -7v-89q-58 5 -82 5q-87 0 -120.5 -40t-33.5 -148v-272h181v-95h-181v-735h181v-94h-451zM596 0v94h174v1286h-164v95h268v-1381h156v-94h-434z" />
</font>
</defs>
</svg>
